name rise49.8558peak67.6521fall70.3087.mot
datacolumns 19
datarows 32
range 9.17996200000000 9.23163500000000
endheader
time	ground_force1_vx	ground_force1_vy	ground_force1_vz	ground_force1_px	ground_force1_py	ground_force1_pz	ground_force2_vx	ground_force2_vy	ground_force2_vz	ground_force2_px	ground_force2_py	ground_force2_pz	ground_torque1_x	ground_torque1_y	ground_torque1_z	ground_torque2_x	ground_torque2_y	ground_torque2_z	
9.17996200000000	-6.33326100000000	44.16080100000000	-9.01963400000000	0.35264700000000	0.00000000000000	0.10894300000000	-59.42153700000000	786.51106000000004	-55.70993200000000	0.17238200000000	0.00000000000000	-0.08162900000000	0.00000000000000	-7.13908300000000	0.00000000000000	0.00000000000000	-25.69734000000000	0.00000000000000	
9.18162800000000	-6.87902200000000	51.94375200000000	-10.17698300000000	0.35882200000000	0.00000000000000	0.10985700000000	-60.08737500000000	784.29619300000002	-55.43824100000000	0.17108900000000	0.00000000000000	-0.08160100000000	0.00000000000000	-8.15672400000000	0.00000000000000	0.00000000000000	-25.58025500000000	0.00000000000000	
9.18329700000000	-7.28475600000000	59.87028300000000	-11.23971700000000	0.36439600000000	0.00000000000000	0.11067000000000	-60.76195900000000	781.96749499999999	-55.14616000000000	0.16978900000000	0.00000000000000	-0.08157100000000	0.00000000000000	-9.11950700000000	0.00000000000000	0.00000000000000	-25.46081200000000	0.00000000000000	
9.18496200000000	-7.53214100000000	67.84088300000001	-12.18345300000000	0.36947800000000	0.00000000000000	0.11139800000000	-61.44466100000000	779.52273700000001	-54.83349400000000	0.16848400000000	0.00000000000000	-0.08153900000000	0.00000000000000	-10.00666900000000	0.00000000000000	0.00000000000000	-25.33906900000000	0.00000000000000	
9.18662900000000	-7.61031800000000	75.77868300000000	-12.99151700000000	0.37415400000000	0.00000000000000	0.11205500000000	-62.13478100000000	776.95962999999995	-54.50006300000000	0.16717700000000	0.00000000000000	-0.08150500000000	0.00000000000000	-10.80331600000000	0.00000000000000	0.00000000000000	-25.21507600000000	0.00000000000000	
9.18829400000000	-7.51574200000000	83.63198700000000	-13.65510200000000	0.37849100000000	0.00000000000000	0.11265200000000	-62.83154700000000	774.27582900000004	-54.14570000000000	0.16586700000000	0.00000000000000	-0.08146800000000	0.00000000000000	-11.50070000000000	0.00000000000000	0.00000000000000	-25.08887400000000	0.00000000000000	
9.18996700000000	-7.25147700000000	91.37431100000001	-14.17276000000000	0.38254200000000	0.00000000000000	0.11319800000000	-63.53411400000000	771.46893599999999	-53.77025800000000	0.16455800000000	0.00000000000000	-0.08142800000000	0.00000000000000	-12.09594700000000	0.00000000000000	0.00000000000000	-24.96049800000000	0.00000000000000	
9.19162900000000	-6.82605700000000	99.00232800000001	-14.54937800000000	0.38635000000000	0.00000000000000	0.11370000000000	-64.24156700000000	768.53650600000003	-53.37360500000000	0.16325200000000	0.00000000000000	-0.08138600000000	0.00000000000000	-12.59135300000000	0.00000000000000	0.00000000000000	-24.82997100000000	0.00000000000000	
9.19330100000000	-6.25211300000000	106.53227600000000	-14.79481300000000	0.38995000000000	0.00000000000000	0.11416400000000	-64.95291700000000	765.47605199999998	-52.95563300000000	0.16194900000000	0.00000000000000	-0.08134100000000	0.00000000000000	-12.99337500000000	0.00000000000000	0.00000000000000	-24.69730900000000	0.00000000000000	
9.19496600000000	-5.54489600000000	113.99536600000000	-14.92236100000000	0.39336900000000	0.00000000000000	0.11459500000000	-65.66710700000000	762.28504799999996	-52.51625500000000	0.16065100000000	0.00000000000000	-0.08129300000000	0.00000000000000	-13.31145200000000	0.00000000000000	0.00000000000000	-24.56251800000000	0.00000000000000	
9.19664100000000	-4.72085000000000	121.43277000000000	-14.94720700000000	0.39663100000000	0.00000000000000	0.11499700000000	-66.38301000000000	758.96094000000005	-52.05540800000000	0.15936100000000	0.00000000000000	-0.08124200000000	0.00000000000000	-13.55678900000000	0.00000000000000	0.00000000000000	-24.42559600000000	0.00000000000000	
9.19830000000000	-3.79633400000000	128.89065800000000	-14.88499900000000	0.39975500000000	0.00000000000000	0.11537300000000	-67.09943199999999	755.50114799999994	-51.57305500000000	0.15808000000000	0.00000000000000	-0.08118800000000	0.00000000000000	-13.74120200000000	0.00000000000000	0.00000000000000	-24.28653000000000	0.00000000000000	
9.19996300000000	-2.78657800000000	136.41566900000001	-14.75062600000000	0.40275700000000	0.00000000000000	0.11572600000000	-67.81511000000000	751.90307800000005	-51.06918800000000	0.15681000000000	0.00000000000000	-0.08113000000000	0.00000000000000	-13.87611300000000	0.00000000000000	0.00000000000000	-24.14529800000000	0.00000000000000	
9.20163600000000	-1.70490400000000	144.05110600000000	-14.55727100000000	0.40565000000000	0.00000000000000	0.11605900000000	-68.52871600000000	748.16412700000001	-50.54382800000000	0.15555300000000	0.00000000000000	-0.08106900000000	0.00000000000000	-13.97174900000000	0.00000000000000	0.00000000000000	-24.00186900000000	0.00000000000000	
9.20330200000000	-0.56223700000000	151.83401699999999	-14.31575600000000	0.40844500000000	0.00000000000000	0.11637400000000	-69.23886200000000	744.28169500000001	-49.99702700000000	0.15431000000000	0.00000000000000	-0.08100400000000	0.00000000000000	-14.03656100000000	0.00000000000000	0.00000000000000	-23.85620300000000	0.00000000000000	
9.20496600000000	0.63311200000000	159.79322700000000	-14.03418500000000	0.41115100000000	0.00000000000000	0.11667300000000	-69.94409300000000	740.25319200000001	-49.42887400000000	0.15308300000000	0.00000000000000	-0.08093500000000	0.00000000000000	-14.07689100000000	0.00000000000000	0.00000000000000	-23.70824900000000	0.00000000000000	
9.20663300000000	1.87543200000000	167.94830600000000	-13.71785900000000	0.41377600000000	0.00000000000000	0.11695700000000	-70.64290200000001	736.07605400000000	-48.83948800000000	0.15187300000000	0.00000000000000	-0.08086300000000	0.00000000000000	-14.09684500000000	0.00000000000000	0.00000000000000	-23.55794700000000	0.00000000000000	
9.20829800000000	3.16138800000000	176.30937000000000	-13.36941300000000	0.41632600000000	0.00000000000000	0.11722800000000	-71.33372000000000	731.74775000000000	-48.22902900000000	0.15068200000000	0.00000000000000	-0.08078700000000	0.00000000000000	-14.09836600000000	0.00000000000000	0.00000000000000	-23.40522900000000	0.00000000000000	
9.20996500000000	4.48966800000000	184.87759100000000	-12.98913300000000	0.41880700000000	0.00000000000000	0.11748700000000	-72.01492700000000	727.26579600000002	-47.59769300000000	0.14951200000000	0.00000000000000	-0.08070600000000	0.00000000000000	-14.08145400000000	0.00000000000000	0.00000000000000	-23.25001600000000	0.00000000000000	
9.21163300000000	5.86053000000000	193.64623599999999	-12.57539400000000	0.42122400000000	0.00000000000000	0.11773500000000	-72.68485500000000	722.62777100000005	-46.94571600000000	0.14836400000000	0.00000000000000	-0.08062100000000	0.00000000000000	-14.04449000000000	0.00000000000000	0.00000000000000	-23.09222200000000	0.00000000000000	
9.21329500000000	7.27531300000000	202.60206500000001	-12.12516100000000	0.42358000000000	0.00000000000000	0.11797300000000	-73.34178600000000	717.83132999999998	-46.27337600000000	0.14724000000000	0.00000000000000	-0.08053300000000	0.00000000000000	-13.98463200000000	0.00000000000000	0.00000000000000	-22.93174900000000	0.00000000000000	
9.21496500000000	8.73594900000000	211.72692400000000	-11.63450900000000	0.42587800000000	0.00000000000000	0.11820300000000	-73.98396200000001	712.87422000000004	-45.58099000000000	0.14614000000000	0.00000000000000	-0.08043900000000	0.00000000000000	-13.89822700000000	0.00000000000000	0.00000000000000	-22.76849500000000	0.00000000000000	
9.21663200000000	10.24452200000000	220.99936099999999	-11.09912100000000	0.42812000000000	0.00000000000000	0.11842300000000	-74.60958300000000	707.75429599999995	-44.86892000000000	0.14506600000000	0.00000000000000	-0.08034100000000	0.00000000000000	-13.78121600000000	0.00000000000000	0.00000000000000	-22.60234600000000	0.00000000000000	
9.21830100000000	11.80288300000000	230.39616799999999	-10.51472000000000	0.43031100000000	0.00000000000000	0.11863600000000	-75.21681800000000	702.46953799999994	-44.13756900000000	0.14402000000000	0.00000000000000	-0.08023900000000	0.00000000000000	-13.62949700000000	0.00000000000000	0.00000000000000	-22.43318200000000	0.00000000000000	
9.21996600000000	13.41234900000000	239.89372499999999	-9.87743700000000	0.43244900000000	0.00000000000000	0.11884200000000	-75.80380400000000	697.01806799999997	-43.38738300000000	0.14300300000000	0.00000000000000	-0.08013200000000	0.00000000000000	-13.43923500000000	0.00000000000000	0.00000000000000	-22.26087500000000	0.00000000000000	
9.22163200000000	15.07349600000000	249.46911100000000	-9.18407700000000	0.43453900000000	0.00000000000000	0.11904100000000	-76.36865200000000	691.39816399999995	-42.61885200000000	0.14201500000000	0.00000000000000	-0.08002000000000	0.00000000000000	-13.20709500000000	0.00000000000000	0.00000000000000	-22.08528900000000	0.00000000000000	
9.22330100000000	16.78603000000000	259.10092800000001	-8.43230200000000	0.43658000000000	0.00000000000000	0.11923500000000	-76.90945300000000	685.60828100000003	-41.83251100000000	0.14105800000000	0.00000000000000	-0.07990300000000	0.00000000000000	-12.93041000000000	0.00000000000000	0.00000000000000	-21.90628300000000	0.00000000000000	
9.22496900000000	18.54874400000000	268.76984499999998	-7.62072400000000	0.43857300000000	0.00000000000000	0.11942200000000	-77.42428200000001	679.64706400000000	-41.02893500000000	0.14013300000000	0.00000000000000	-0.07978100000000	0.00000000000000	-12.60726700000000	0.00000000000000	0.00000000000000	-21.72370900000000	0.00000000000000	
9.22663100000000	20.35954100000000	278.45888300000001	-6.74891700000000	0.44051900000000	0.00000000000000	0.11960400000000	-77.91120500000000	673.51336000000003	-40.20874400000000	0.13924000000000	0.00000000000000	-0.07965500000000	0.00000000000000	-12.23654300000000	0.00000000000000	0.00000000000000	-21.53741200000000	0.00000000000000	
9.22829600000000	22.21551600000000	288.15346199999999	-5.81737100000000	0.44241800000000	0.00000000000000	0.11978000000000	-78.36827900000000	667.20623499999999	-39.37260200000000	0.13838100000000	0.00000000000000	-0.07952300000000	0.00000000000000	-11.81787000000000	0.00000000000000	0.00000000000000	-21.34723600000000	0.00000000000000	
9.22996900000000	24.11306200000000	297.84126400000002	-4.82740000000000	0.44427200000000	0.00000000000000	0.11995200000000	-78.79356300000001	660.72498299999995	-38.52121200000000	0.13755700000000	0.00000000000000	-0.07938600000000	0.00000000000000	-11.35157600000000	0.00000000000000	0.00000000000000	-21.15301700000000	0.00000000000000	
9.23163500000000	26.04801700000000	307.51196499999998	-3.78101200000000	0.44607900000000	0.00000000000000	0.12012000000000	-79.18512100000000	654.06913599999996	-37.65532200000000	0.13676900000000	0.00000000000000	-0.07924400000000	0.00000000000000	-10.83858500000000	0.00000000000000	0.00000000000000	-20.95459000000000	0.00000000000000	
